mtllib big_gulp_of_pop_objShape.mtl
s 1
v -0.089369 0.827409 -0.275050
v -0.089369 0.827409 -0.275050
v -0.089369 0.858134 -0.275050
v -0.089369 0.858134 -0.275050
v -0.089369 0.858134 -0.275050
v -0.085113 0.818191 -0.261952
v -0.085113 0.818191 -0.261952
v -0.233971 0.827409 -0.169990
v -0.233971 0.858134 -0.169990
v -0.233971 0.858134 -0.169990
v -0.222830 0.818191 -0.161895
v -0.013536 1.096123 -0.242489
v -0.013536 1.069171 -0.239938
v 0.013536 1.096123 -0.242489
v 0.013536 1.069171 -0.239938
v 0.089369 0.827409 -0.275050
v 0.089369 0.858134 -0.275050
v 0.089369 0.858134 -0.275050
v -0.063047 0.312246 -0.194039
v -0.063047 0.312246 -0.194039
v 0.085113 0.818191 -0.261952
v -0.059107 0.298932 -0.181911
v -0.059107 0.298932 -0.181911
v -0.165059 0.312246 -0.119923
v -0.054560 0.232360 -0.167918
v -0.054560 0.232360 -0.167918
v -0.154743 0.298932 -0.112427
v -0.142840 0.232360 -0.103779
v -0.047443 0.213925 -0.146016
v -0.047443 0.213925 -0.146016
v -0.045280 0.001051 -0.139359
v -0.045280 0.001051 -0.139359
v 0.063047 0.312246 -0.194039
v -0.124208 0.213925 -0.090243
v 0.059107 0.298932 -0.181911
v -0.289205 0.827409 0.000000
v -0.289205 0.858134 0.000000
v -0.289205 0.858134 0.000000
v -0.118546 0.001051 -0.086128
v -0.275433 0.818191 0.000000
v 0.054560 0.232360 -0.167918
v -0.008554 1.098404 -0.119373
v -0.008554 1.081373 -0.117761
v 0.047443 0.213925 -0.146016
v 0.045280 0.001051 -0.139359
v 0.008554 1.098404 -0.119373
v 0.008554 1.081373 -0.117761
v -0.204024 0.312246 0.000000
v -0.005445 1.101250 -0.097163
v -0.191273 0.298932 0.000000
v -0.005445 1.081992 -0.094608
v 0.005445 1.101250 -0.097163
v 0.005445 1.081992 -0.094608
v -0.176560 0.232360 0.000000
v -0.010333 1.079981 -0.077227
v -0.153530 0.213925 0.000000
v -0.010333 1.099546 -0.070572
v -0.146531 0.001051 0.000000
v 0.010333 1.079981 -0.077227
v 0.010333 1.099546 -0.070572
v -0.006334 1.076956 -0.055079
v -0.012112 1.064212 -0.048712
v 0.006334 1.076956 -0.055079
v 0.233971 0.827409 -0.169990
v 0.233971 0.858134 -0.169990
v 0.233971 0.858134 -0.169990
v 0.222830 0.818191 -0.161895
v -0.006334 1.090255 -0.042893
v 0.012112 1.064212 -0.048712
v 0.006334 1.090255 -0.042893
v 0.165059 0.312246 -0.119923
v -0.012112 1.067816 -0.028863
v 0.154743 0.298932 -0.112427
v 0.142840 0.232360 -0.103779
v 0.124208 0.213925 -0.090243
v 0.118546 0.001051 -0.086128
v 0.012112 1.067816 -0.028863
v -0.012112 0.843894 -0.008706
v 0.012112 0.843894 -0.008706
v -0.012112 0.848222 0.015129
v 0.012112 0.848222 0.015129
v -0.118546 0.001051 0.086128
v -0.124208 0.213925 0.090243
v -0.142840 0.232360 0.103779
v -0.154743 0.298932 0.112427
v -0.165059 0.312246 0.119923
v -0.222830 0.818191 0.161895
v -0.233971 0.827409 0.169990
v -0.233971 0.858134 0.169990
v -0.233971 0.858134 0.169990
v 0.146531 0.001051 0.000000
v 0.153530 0.213925 0.000000
v 0.176560 0.232360 0.000000
v 0.191273 0.298932 0.000000
v 0.204024 0.312246 0.000000
v -0.045280 0.001051 0.139359
v -0.047443 0.213925 0.146016
v -0.054560 0.232360 0.167918
v 0.275433 0.818191 0.000000
v 0.118546 0.001051 0.086128
v 0.289205 0.827409 0.000000
v 0.289205 0.858134 0.000000
v 0.289205 0.858134 0.000000
v -0.059107 0.298932 0.181911
v 0.124208 0.213925 0.090243
v -0.063047 0.312246 0.194039
v 0.045280 0.001051 0.139359
v 0.047443 0.213925 0.146016
v 0.142840 0.232360 0.103779
v 0.154743 0.298932 0.112427
v 0.054560 0.232360 0.167918
v 0.165059 0.312246 0.119923
v 0.059107 0.298932 0.181911
v -0.085113 0.818191 0.261952
v 0.063047 0.312246 0.194039
v -0.089369 0.827409 0.275050
v -0.089369 0.858134 0.275050
v -0.089369 0.858134 0.275050
v 0.222830 0.818191 0.161895
v 0.233971 0.827409 0.169990
v 0.233971 0.858134 0.169990
v 0.233971 0.858134 0.169990
v 0.085113 0.818191 0.261952
v 0.089369 0.827409 0.275050
v 0.089369 0.858134 0.275050
v 0.089369 0.858134 0.275050
vn -0.271250 -0.479061 -0.834820
vn -0.271250 -0.479061 -0.834820
vn -0.273521 0.465341 -0.841810
vn -0.273521 0.465341 -0.841810
vn -0.273521 0.465341 -0.841810
vn -0.260495 -0.537947 -0.801721
vn -0.260495 -0.537947 -0.801721
vn -0.710140 -0.479061 -0.515947
vn -0.716087 0.465341 -0.520267
vn -0.716087 0.465341 -0.520267
vn -0.681984 -0.537947 -0.495491
vn -0.705443 0.708599 0.015418
vn -0.706451 -0.700832 0.098803
vn 0.705443 0.708599 0.015417
vn 0.706451 -0.700832 0.098803
vn 0.271249 -0.479061 -0.834820
vn 0.273520 0.465341 -0.841810
vn 0.273520 0.465341 -0.841810
vn -0.277493 -0.440027 -0.854034
vn -0.277493 -0.440027 -0.854034
vn 0.260495 -0.537946 -0.801721
vn -0.272127 -0.473822 -0.837520
vn -0.272127 -0.473822 -0.837520
vn -0.726485 -0.440027 -0.527822
vn -0.261566 -0.532479 -0.805015
vn -0.261566 -0.532479 -0.805015
vn -0.712437 -0.473822 -0.517616
vn -0.684787 -0.532479 -0.497527
vn -0.275342 -0.453953 -0.847416
vn -0.275342 -0.453953 -0.847416
vn -0.269749 -0.487852 -0.830202
vn -0.269749 -0.487852 -0.830202
vn 0.277493 -0.440027 -0.854034
vn -0.720855 -0.453953 -0.523732
vn 0.272127 -0.473822 -0.837520
vn -0.877781 -0.479062 0.000000
vn -0.885131 0.465341 0.000000
vn -0.885131 0.465341 0.000000
vn -0.706212 -0.487852 -0.513093
vn -0.842979 -0.537947 0.000000
vn 0.261565 -0.532479 -0.805016
vn -0.703341 0.710777 0.010375
vn -0.705639 -0.700484 0.106756
vn 0.275342 -0.453953 -0.847416
vn 0.269749 -0.487852 -0.830202
vn 0.703341 0.710777 0.010375
vn 0.705639 -0.700484 0.106756
vn -0.897985 -0.440026 0.000000
vn -0.695344 0.716881 -0.050780
vn -0.880621 -0.473822 0.000000
vn -0.708003 -0.703592 -0.060745
vn 0.695344 0.716881 -0.050780
vn 0.708003 -0.703592 -0.060744
vn -0.846443 -0.532479 0.000000
vn -0.688713 -0.715927 -0.114557
vn -0.891026 -0.453953 0.000000
vn -0.716115 0.689012 0.111547
vn -0.872927 -0.487852 0.000000
vn 0.688713 -0.715927 -0.114557
vn 0.716115 0.689012 0.111547
vn -0.766647 -0.501660 -0.400736
vn -0.692724 -0.135451 -0.708369
vn 0.766647 -0.501660 -0.400736
vn 0.710140 -0.479061 -0.515948
vn 0.716086 0.465341 -0.520267
vn 0.716086 0.465341 -0.520267
vn 0.681984 -0.537946 -0.495491
vn -0.694479 0.584575 0.419490
vn 0.692724 -0.135451 -0.708369
vn 0.694479 0.584575 0.419490
vn 0.726485 -0.440027 -0.527822
vn -0.707947 0.349497 0.613729
vn 0.712437 -0.473822 -0.517616
vn 0.684787 -0.532479 -0.497527
vn 0.720855 -0.453953 -0.523732
vn 0.706212 -0.487852 -0.513093
vn 0.707947 0.349497 0.613729
vn -0.707107 -0.126333 -0.695730
vn 0.707107 -0.126333 -0.695730
vn -0.707107 0.138899 0.693331
vn 0.707107 0.138899 0.693331
vn -0.706212 -0.487852 0.513093
vn -0.720855 -0.453953 0.523732
vn -0.684787 -0.532479 0.497527
vn -0.712437 -0.473822 0.517616
vn -0.726485 -0.440026 0.527822
vn -0.681984 -0.537946 0.495491
vn -0.710140 -0.479061 0.515948
vn -0.716087 0.465341 0.520267
vn -0.716087 0.465341 0.520267
vn 0.872927 -0.487852 0.000000
vn 0.891026 -0.453953 0.000000
vn 0.846443 -0.532479 0.000000
vn 0.880621 -0.473822 0.000000
vn 0.897985 -0.440026 0.000000
vn -0.269749 -0.487852 0.830202
vn -0.275342 -0.453953 0.847416
vn -0.261565 -0.532479 0.805016
vn 0.842979 -0.537947 0.000000
vn 0.706212 -0.487852 0.513093
vn 0.877781 -0.479062 0.000000
vn 0.885131 0.465341 0.000000
vn 0.885131 0.465341 0.000000
vn -0.272127 -0.473822 0.837520
vn 0.720855 -0.453953 0.523732
vn -0.277493 -0.440026 0.854034
vn 0.269749 -0.487852 0.830202
vn 0.275342 -0.453953 0.847416
vn 0.684787 -0.532479 0.497527
vn 0.712437 -0.473822 0.517616
vn 0.261566 -0.532479 0.805016
vn 0.726485 -0.440026 0.527822
vn 0.272127 -0.473822 0.837520
vn -0.260495 -0.537946 0.801721
vn 0.277493 -0.440026 0.854034
vn -0.271249 -0.479061 0.834820
vn -0.273521 0.465341 0.841810
vn -0.273521 0.465341 0.841810
vn 0.681984 -0.537947 0.495491
vn 0.710140 -0.479061 0.515947
vn 0.716087 0.465341 0.520267
vn 0.716087 0.465341 0.520267
vn 0.260495 -0.537947 0.801721
vn 0.271250 -0.479061 0.834820
vn 0.273521 0.465341 0.841810
vn 0.273521 0.465341 0.841810
vt 2.997903 0.475730
vt 4.003340 0.475730
vt 0.672479 0.995309
vt 2.997903 0.500304
vt 4.003340 0.500304
vt 2.997903 0.464975
vt 4.003340 0.464975
vt 3.098447 0.475730
vt 0.547786 0.902220
vt 3.098447 0.500304
vt 3.098447 0.464975
vt 0.489467 0.982251
vt 0.490627 0.936869
vt 0.489467 0.982251
vt 0.490627 0.936869
vt 3.902796 0.475730
vt 0.826609 0.995309
vt 3.902796 0.500304
vt 2.997903 0.188275
vt 4.003340 0.188275
vt 3.902796 0.464975
vt 2.997903 0.175767
vt 4.003340 0.175767
vt 3.098447 0.188275
vt 2.997903 0.139099
vt 4.003340 0.139099
vt 3.098447 0.175767
vt 3.098447 0.139099
vt 2.997903 0.126483
vt 4.003340 0.126483
vt 2.997903 0.004082
vt 4.003340 0.004082
vt 3.902796 0.188275
vt 3.098447 0.126483
vt 3.902796 0.175767
vt 3.198991 0.475730
vt 0.500157 0.751599
vt 3.198991 0.500304
vt 3.098447 0.004082
vt 3.198991 0.464975
vt 3.902796 0.139099
vt 0.252752 0.993140
vt 0.249806 0.958943
vt 3.902796 0.126483
vt 3.902796 0.004082
vt 0.252752 0.993140
vt 0.249806 0.958943
vt 3.198991 0.188275
vt 0.211180 0.992061
vt 3.198991 0.175767
vt 0.207480 0.960185
vt 0.211180 0.992061
vt 0.207480 0.960185
vt 3.198991 0.139099
vt 0.171823 0.960029
vt 3.198991 0.126483
vt 0.163054 0.990579
vt 3.198991 0.004082
vt 0.171823 0.960029
vt 0.163054 0.990579
vt 0.139099 0.952015
vt 0.118290 0.926424
vt 0.139099 0.952015
vt 3.802253 0.475730
vt 0.951302 0.902220
vt 3.802253 0.500304
vt 3.802253 0.464975
vt 0.114882 0.975321
vt 0.118290 0.926424
vt 0.114882 0.975321
vt 3.802253 0.188275
vt 0.085134 0.930750
vt 3.802253 0.175767
vt 3.802253 0.139099
vt 3.802253 0.126483
vt 3.802253 0.004082
vt 0.085134 0.930750
vt 0.048103 0.510855
vt 0.048103 0.510855
vt 0.004531 0.511179
vt 0.004531 0.511179
vt 3.299534 0.004082
vt 3.299534 0.126483
vt 3.299534 0.139099
vt 3.299534 0.175767
vt 3.299534 0.188275
vt 3.299534 0.464975
vt 3.299534 0.475730
vt 0.547786 0.600978
vt 3.299534 0.500304
vt 3.701709 0.004082
vt 3.701709 0.126483
vt 3.701709 0.139099
vt 3.701709 0.175767
vt 3.701709 0.188275
vt 3.400078 0.004082
vt 3.400078 0.126483
vt 3.400078 0.139099
vt 3.701709 0.464975
vt 3.601165 0.004082
vt 3.701709 0.475730
vt 0.998931 0.751599
vt 3.701709 0.500304
vt 3.400078 0.175767
vt 3.601165 0.126483
vt 3.400078 0.188275
vt 3.500622 0.004082
vt 3.500622 0.126483
vt 3.601165 0.139099
vt 3.601165 0.175767
vt 3.500622 0.139099
vt 3.601165 0.188275
vt 3.500622 0.175767
vt 3.400078 0.464975
vt 3.500622 0.188275
vt 3.400078 0.475730
vt 0.672479 0.507889
vt 3.400078 0.500304
vt 3.601165 0.464975
vt 3.601165 0.475730
vt 0.951302 0.600978
vt 3.601165 0.500304
vt 3.500622 0.464975
vt 3.500622 0.475730
vt 0.826609 0.507889
vt 3.500622 0.500304
g big_gulp_of_pop_objShape
usemtl ebola_cola_m
f 8/8/8 4/4/4 1/1/1
f 16/16/16 7/7/7 2/2/2
f 5/5/5 18/18/18 2/2/2
f 37/37/37 121/121/121 3/3/3
f 11/11/11 1/1/1 6/6/6
f 21/21/21 20/20/20 7/7/7
f 10/10/10 4/4/4 8/8/8
f 36/36/36 10/10/10 8/8/8
f 1/1/1 11/11/11 8/8/8
f 37/37/37 3/3/3 9/9/9
f 40/40/40 8/8/8 11/11/11
f 6/6/6 24/24/24 11/11/11
f 43/43/43 12/12/12 13/13/13
f 15/15/15 43/43/43 13/13/13
f 12/12/12 46/46/46 14/14/14
f 14/14/14 47/47/47 15/15/15
f 2/2/2 18/18/18 16/16/16
f 64/64/64 21/21/21 16/16/16
f 18/18/18 66/66/66 16/16/16
f 3/3/3 65/65/65 17/17/17
f 24/24/24 6/6/6 19/19/19
f 33/33/33 23/23/23 20/20/20
f 7/7/7 16/16/16 21/21/21
f 67/67/67 33/33/33 21/21/21
f 27/27/27 19/19/19 22/22/22
f 35/35/35 26/26/26 23/23/23
f 48/48/48 11/11/11 24/24/24
f 19/19/19 27/27/27 24/24/24
f 28/28/28 22/22/22 25/25/25
f 41/41/41 30/30/30 26/26/26
f 50/50/50 24/24/24 27/27/27
f 22/22/22 28/28/28 27/27/27
f 54/54/54 27/27/27 28/28/28
f 25/25/25 34/34/34 28/28/28
f 34/34/34 25/25/25 29/29/29
f 44/44/44 32/32/32 30/30/30
f 39/39/39 29/29/29 31/31/31
f 45/45/45 39/39/39 32/32/32
f 20/20/20 21/21/21 33/33/33
f 71/71/71 35/35/35 33/33/33
f 56/56/56 28/28/28 34/34/34
f 29/29/29 39/39/39 34/34/34
f 23/23/23 33/33/33 35/35/35
f 73/73/73 41/41/41 35/35/35
f 38/38/38 10/10/10 36/36/36
f 88/88/88 38/38/38 36/36/36
f 8/8/8 40/40/40 36/36/36
f 117/117/117 121/121/121 37/37/37
f 58/58/58 34/34/34 39/39/39
f 45/45/45 91/91/91 39/39/39
f 87/87/87 36/36/36 40/40/40
f 11/11/11 48/48/48 40/40/40
f 26/26/26 35/35/35 41/41/41
f 74/74/74 44/44/44 41/41/41
f 46/46/46 12/12/12 42/42/42
f 42/42/42 12/12/12 43/43/43
f 47/47/47 51/51/51 43/43/43
f 30/30/30 41/41/41 44/44/44
f 75/75/75 45/45/45 44/44/44
f 32/32/32 44/44/44 45/45/45
f 47/47/47 14/14/14 46/46/46
f 42/42/42 52/52/52 46/46/46
f 43/43/43 15/15/15 47/47/47
f 86/86/86 40/40/40 48/48/48
f 24/24/24 50/50/50 48/48/48
f 52/52/52 42/42/42 49/49/49
f 42/42/42 51/51/51 49/49/49
f 51/51/51 57/57/57 49/49/49
f 85/85/85 48/48/48 50/50/50
f 27/27/27 54/54/54 50/50/50
f 42/42/42 43/43/43 51/51/51
f 53/53/53 46/46/46 52/52/52
f 60/60/60 53/53/53 52/52/52
f 47/47/47 46/46/46 53/53/53
f 51/51/51 47/47/47 53/53/53
f 84/84/84 50/50/50 54/54/54
f 28/28/28 56/56/56 54/54/54
f 57/57/57 51/51/51 55/55/55
f 51/51/51 53/53/53 55/55/55
f 59/59/59 61/61/61 55/55/55
f 83/83/83 54/54/54 56/56/56
f 34/34/34 58/58/58 56/56/56
f 60/60/60 49/49/49 57/57/57
f 82/82/82 56/56/56 58/58/58
f 39/39/39 82/82/82 58/58/58
f 55/55/55 53/53/53 59/59/59
f 52/52/52 49/49/49 60/60/60
f 59/59/59 53/53/53 60/60/60
f 57/57/57 70/70/70 60/60/60
f 57/57/57 55/55/55 61/61/61
f 72/72/72 61/61/61 62/62/62
f 61/61/61 63/63/63 62/62/62
f 69/69/69 78/78/78 62/62/62
f 61/61/61 59/59/59 63/63/63
f 59/59/59 60/60/60 63/63/63
f 16/16/16 66/66/66 64/64/64
f 101/101/101 67/67/67 64/64/64
f 66/66/66 103/103/103 64/64/64
f 3/3/3 121/121/121 65/65/65
f 21/21/21 64/64/64 67/67/67
f 99/99/99 71/71/71 67/67/67
f 70/70/70 57/57/57 68/68/68
f 57/57/57 61/61/61 68/68/68
f 61/61/61 72/72/72 68/68/68
f 62/62/62 63/63/63 69/69/69
f 79/79/79 78/78/78 69/69/69
f 63/63/63 60/60/60 70/70/70
f 77/77/77 63/63/63 70/70/70
f 33/33/33 67/67/67 71/71/71
f 95/95/95 73/73/73 71/71/71
f 77/77/77 68/68/68 72/72/72
f 35/35/35 71/71/71 73/73/73
f 94/94/94 74/74/74 73/73/73
f 41/41/41 73/73/73 74/74/74
f 93/93/93 75/75/75 74/74/74
f 44/44/44 74/74/74 75/75/75
f 92/92/92 76/76/76 75/75/75
f 91/91/91 45/45/45 76/76/76
f 45/45/45 75/75/75 76/76/76
f 69/69/69 63/63/63 77/77/77
f 70/70/70 68/68/68 77/77/77
f 72/72/72 62/62/62 78/78/78
f 69/69/69 77/77/77 79/79/79
f 81/81/81 72/72/72 80/80/80
f 72/72/72 78/78/78 80/80/80
f 77/77/77 72/72/72 81/81/81
f 79/79/79 77/77/77 81/81/81
f 96/96/96 83/83/83 82/82/82
f 39/39/39 91/91/91 82/82/82
f 56/56/56 82/82/82 83/83/83
f 97/97/97 84/84/84 83/83/83
f 54/54/54 83/83/83 84/84/84
f 98/98/98 85/85/85 84/84/84
f 50/50/50 84/84/84 85/85/85
f 104/104/104 86/86/86 85/85/85
f 48/48/48 85/85/85 86/86/86
f 106/106/106 87/87/87 86/86/86
f 40/40/40 86/86/86 87/87/87
f 114/114/114 88/88/88 87/87/87
f 90/90/90 38/38/38 88/88/88
f 36/36/36 87/87/87 88/88/88
f 116/116/116 90/90/90 88/88/88
f 117/117/117 37/37/37 89/89/89
f 76/76/76 92/92/92 91/91/91
f 105/105/105 91/91/91 92/92/92
f 75/75/75 93/93/93 92/92/92
f 109/109/109 92/92/92 93/93/93
f 74/74/74 94/94/94 93/93/93
f 110/110/110 93/93/93 94/94/94
f 73/73/73 95/95/95 94/94/94
f 112/112/112 94/94/94 95/95/95
f 71/71/71 99/99/99 95/95/95
f 107/107/107 97/97/97 96/96/96
f 82/82/82 107/107/107 96/96/96
f 83/83/83 96/96/96 97/97/97
f 108/108/108 98/98/98 97/97/97
f 84/84/84 97/97/97 98/98/98
f 111/111/111 104/104/104 98/98/98
f 119/119/119 95/95/95 99/99/99
f 67/67/67 101/101/101 99/99/99
f 107/107/107 91/91/91 100/100/100
f 91/91/91 105/105/105 100/100/100
f 120/120/120 99/99/99 101/101/101
f 64/64/64 103/103/103 101/101/101
f 103/103/103 122/122/122 101/101/101
f 65/65/65 121/121/121 102/102/102
f 85/85/85 98/98/98 104/104/104
f 113/113/113 106/106/106 104/104/104
f 108/108/108 100/100/100 105/105/105
f 92/92/92 109/109/109 105/105/105
f 86/86/86 104/104/104 106/106/106
f 115/115/115 114/114/114 106/106/106
f 82/82/82 91/91/91 107/107/107
f 100/100/100 108/108/108 107/107/107
f 97/97/97 107/107/107 108/108/108
f 105/105/105 111/111/111 108/108/108
f 111/111/111 105/105/105 109/109/109
f 93/93/93 110/110/110 109/109/109
f 113/113/113 109/109/109 110/110/110
f 94/94/94 112/112/112 110/110/110
f 98/98/98 108/108/108 111/111/111
f 109/109/109 113/113/113 111/111/111
f 115/115/115 110/110/110 112/112/112
f 95/95/95 119/119/119 112/112/112
f 104/104/104 111/111/111 113/113/113
f 110/110/110 115/115/115 113/113/113
f 87/87/87 106/106/106 114/114/114
f 123/123/123 116/116/116 114/114/114
f 106/106/106 113/113/113 115/115/115
f 112/112/112 123/123/123 115/115/115
f 118/118/118 90/90/90 116/116/116
f 88/88/88 114/114/114 116/116/116
f 124/124/124 118/118/118 116/116/116
f 123/123/123 112/112/112 119/119/119
f 99/99/99 120/120/120 119/119/119
f 124/124/124 119/119/119 120/120/120
f 101/101/101 122/122/122 120/120/120
f 122/122/122 126/126/126 120/120/120
f 114/114/114 115/115/115 123/123/123
f 119/119/119 124/124/124 123/123/123
f 126/126/126 118/118/118 124/124/124
f 116/116/116 123/123/123 124/124/124
f 120/120/120 126/126/126 124/124/124
f 121/121/121 117/117/117 125/125/125
